<?xml version="1.0" encoding="utf-8"?>
<!-- Generator: Adobe Illustrator 26.3.1, SVG Export Plug-In . SVG Version: 6.00 Build 0)  -->
<svg version="1.1" id="Layer_1" xmlns="http://www.w3.org/2000/svg" xmlns:xlink="http://www.w3.org/1999/xlink" x="0px" y="0px"
	 viewBox="0 0 1000 322.3" style="enable-background:new 0 0 1000 322.3;" xml:space="preserve">
<style type="text/css">
	.st0{clip-path:url(#SVGID_00000122701109582052233830000006977802837440533414_);}
	.st1{fill:url(#Rectangle_1208_00000177462200608711999790000003743640750271848884_);}
	.st2{fill:#FFFFFF;}
	.st3{fill:#39B54A;}
	.st4{enable-background:new    ;}
</style>
<g>
	<path id="Path_1063_00000085952507575968065230000015844897746760077190_" d="M390,308.7h-4.1V14.1h4.1V308.7z"/>
	<g>
		<defs>
			<path id="SVGID_1_" d="M81.8,25.9C23.5,59.6-6.7,126.9,7,192.8c1.1,5.5,2.6,10.9,4.3,16.2c26.5,82.1,114.5,127.2,196.6,100.7
				c76.8-24.8,122.1-104,104.5-182.7c-1.2-5.4-2.7-10.8-4.6-16.1C280,29.3,191.3-14.4,109.6,13.3C100,16.6,90.6,20.8,81.8,25.9"/>
		</defs>
		<clipPath id="SVGID_00000034806680328232874280000011145198454349728402_">
			<use xlink:href="#SVGID_1_"  style="overflow:visible;"/>
		</clipPath>
		
			<g id="Group_3135_00000003087707139159489390000013065302690589690512_" style="clip-path:url(#SVGID_00000034806680328232874280000011145198454349728402_);">
			
				<linearGradient id="Rectangle_1208_00000013889998207305287320000015087796966823577503_" gradientUnits="userSpaceOnUse" x1="-454.1972" y1="695.0011" x2="-458.3113" y2="695.0342" gradientTransform="matrix(95.3927 -55.075 -55.135 -95.4966 82002.2344 41416.5469)">
				<stop  offset="0" style="stop-color:#C2ED26"/>
				<stop  offset="0.788" style="stop-color:#4BBC45"/>
				<stop  offset="1" style="stop-color:#39B54A"/>
			</linearGradient>
			
				<polygon id="Rectangle_1208_00000005255058401654899300000007706911172401466021_" style="fill:url(#Rectangle_1208_00000013889998207305287320000015087796966823577503_);" points="
				-151.2,88.6 243.6,-139.3 471.8,255.9 77,483.9 			"/>
		</g>
	</g>
	<path id="Path_1024_00000127745508825571654250000007352443542359139249_" class="st2" d="M169.2,186c0,0,0.1-0.1,0-0.1
		c-0.5-1.9-9.6-32.1-39.1-35c-8.8-0.8-17.7,1.3-25.3,5.8l-7.2,4.2c-3.2,1.9-7.4,0.9-9.4-2.2c0-0.1,0-0.1-0.1-0.2c0,0,0-0.1-0.1-0.2
		c-1.8-3.3-0.5-7.5,2.8-9.3l41.3-23.8c0,0,49.9-26.6,31.4-82.2c0-0.1-0.1-0.1-0.2-0.1L105,76.5C90,85,78.6,98.8,73.1,115.2
		c-2.5,7.5-3.5,15.5-3,23.4c-1.9,10.7-7.7,20.4-16.2,27.2l0,0L7,192.8c1.1,5.5,2.6,10.9,4.3,16.2L62,179.8h0.1
		c8.7-3.3,18.3-3.4,27.1-0.2c11.1,10.7,25.9,16.7,41.3,16.8c13.3,0.3,26.3-3.1,37.7-9.8L169.2,186L169.2,186z"/>
	<path id="Path_1025_00000019668383055280773410000012596454854243349150_" class="st2" d="M312.4,127c-1.2-5.5-2.7-10.8-4.6-16.1
		l-51.9,29.9h-0.1l-0.1,0.1c-9.7,3.6-20.5,3.3-30-1l0,0c-10.1-8.6-22.8-13.6-36-14.2c-14.2-0.9-28.2,2.5-40.5,9.7l-1,0.5
		c0,0,7.8,29,34.8,34.4c10.2,1.9,20.8,0.1,29.7-5.2l7.3-4.2c3.2-1.9,7.4-0.9,9.3,2.3c0,0,0,0.1,0.1,0.2s0,0.1,0.1,0.2
		c1.8,3.3,0.6,7.4-2.6,9.2l-41.4,23.9c0,0-50,26.6-31.4,82.4l58.6-33.8c15.4-8.8,26.9-23.1,32-40c2.1-6.9,3-14.1,2.6-21.2l0,0
		c1.5-11.5,7.4-21.9,16.5-29.1h0.1L312.4,127L312.4,127z"/>
	<path id="Path_1055_00000135681123085696145390000014551679763035389095_" class="st3" d="M452.4,117.8c0,16.6,8.4,44.9,57.4,44.9
		c11.8,0,52.9-3.6,52.9-44c0-24.1-16.8-31.6-35.2-36.1l-32.7-8c-5.6-1.3-14.2-3.6-14.2-14c0-12.2,12.7-16.1,23.4-16.1
		c24.5,0,26.7,14.2,27.5,20.2h26.9c-0.2-16.5-11.2-43.4-52.4-43.4c-43.6,0-51.6,26.4-51.6,41.3c0,29.6,20.9,34.4,42.6,39.5l14.4,3.4
		c14.2,3.4,24.3,6.2,24.3,16.6c0,14.2-14.8,17.4-28.1,17.4c-24.5,0-28.2-14.2-28.4-21.7L452.4,117.8z M609.9,24.8h-28.1v134.3h28.1
		V24.8z M664.2,110.7h32.2c36.1,0,42.8-30.7,42.8-42.8c0-26.4-15.7-43-41.7-43h-61.4v134.3h28.1V110.7z M664.2,87.5V48h22.3
		c17.4,0,24.7,5.4,24.7,18.5c0,6,0,20.9-20.9,20.9H664.2z M859.6,24.8h-98.8v134.3h101.9v-23.8h-74.4v-34.8h65.5V76.8h-65.5V48.6
		h71.3V24.8z M942.7,48.6h40.6V24.8H874v23.8h40.6v110.5h28.1L942.7,48.6z"/>
	<g class="st4">
		<path d="M455.7,225.1c0.5,6.4,4.8,8.7,10.2,8.7c6.4,0,9-3.4,9-7.3c0-11-21.6-3.7-21.6-17.6c0-4.9,4.1-9.5,12-9.5
			c8,0,12,4.8,11.9,10.6H474c0-5.4-4.2-7.7-8.7-7.7c-6.8,0-9.3,4.2-8.7,7.8c1.5,9.2,21.6,2.6,21.6,16.3c0,6.5-4.8,10.3-13,10.3
			c-7.4,0-12.9-3.8-12.9-11.5H455.7z"/>
		<path d="M484.4,235.7v-35.5H508v2.9h-20.2v12.8H506v2.9h-18.3v14.1h20.7v2.9H484.4z"/>
		<path d="M511.2,235.7l13.9-35.5h3.8l13.6,35.5h-3.4l-4.1-11.1h-16.2l-4.2,11.1H511.2z M520,221.7h13.9l-6.9-18.6L520,221.7z"/>
		<path d="M562.2,235.7v-35.5h3.4v35.5H562.2z"/>
		<path d="M577.2,235.7h-3v-25.5h3v3.5c2.4-2.5,4.7-4.2,8.2-4.2c3.1,0,6,1,7.8,3.6c1.2,1.8,1.3,3.7,1.3,5.9v16.7h-3V219
			c0-4.6-1.9-6.9-6.6-6.9c-3.6,0-6.2,2.4-7.1,5c-0.6,1.6-0.6,3.1-0.6,4.8V235.7z"/>
		<path d="M599.1,212.6v-2.5h3.8v-4c0-4,1.5-6.6,5.4-6.6c0.9,0,1.7,0.1,2.5,0.2v2.7c-0.6-0.1-1.2-0.2-1.8-0.2
			c-3.1,0-3.2,2.5-3.2,4.8v3.2h4.9v2.5h-4.9v23.1h-3v-23.1H599.1z"/>
		<path d="M613.7,222.9c0-7.4,3.9-13.4,11.8-13.4c8,0,11.8,6,11.8,13.4c0,8.1-4.7,13.5-11.8,13.5C619,236.3,613.7,231.8,613.7,222.9
			z M625.5,212.1c-6.2,0-8.7,5.3-8.7,10.8c0,6.4,3,10.8,8.7,10.8c6.2,0,8.7-5.3,8.7-10.8C634.1,216.9,631.8,212.1,625.5,212.1z"/>
		<path d="M645.9,235.7h-3v-25.5h3v4.8h0.1c1.6-4.1,4-5.5,8.3-5.5v3.2c-6.7-0.1-8.4,4.8-8.4,10.5V235.7z"/>
		<path d="M662.6,235.7h-3v-25.5h3v3.8h0.1c1.5-2.9,4.6-4.5,7.9-4.5c4.7,0,6.4,2.2,7.5,4.9c1.7-3.3,4.7-4.9,8.3-4.9
			c6.9,0,7.9,5,7.9,10.1v16.1h-3V218c0-3.6-1.3-5.9-5.5-5.9c-2.2,0-4.3,0.9-5.8,2.9c-1.3,1.7-1.7,4.8-1.7,6.9v13.7h-3V218
			c0-3.6-1.3-5.9-5.5-5.9c-2.2,0-4.3,0.9-5.8,2.9c-1.3,1.7-1.7,4.8-1.7,6.9V235.7z"/>
		<path d="M712.8,220.8c1.1-0.1,2.9-0.4,3.9-0.8c1-0.4,1.1-1.8,1.1-2.7c0-3-1.8-5.2-6.4-5.2c-4.1,0-6.9,1.3-7.4,5.8h-3
			c0.4-6,4.9-8.4,10.5-8.4c5.2,0,9.3,2,9.3,7.9v13.9c0,2.3,0.6,2.9,3.1,2v2.3c-0.4,0.1-1.5,0.5-2.3,0.5c-0.5,0-0.9-0.1-1.3-0.1
			c-2-0.3-2.3-2-2.4-3.8c-2.5,2.8-5.8,4.2-9.5,4.2c-4.5,0-8.5-2.4-8.5-7.3c0-4.3,3-6.9,8.9-7.7L712.8,220.8z M717.8,222.3
			c-2.5,1-5.1,1.2-7.6,1.4c-4.5,0.3-7.2,2-7.2,5.4c0,3.1,2.7,4.6,5.5,4.6c4.7,0,9.3-2.3,9.3-7.4V222.3z"/>
		<path d="M737.4,235.8c-0.7,0.1-2,0.6-3.4,0.6c-2.9,0-4.5-1.3-4.5-5.1v-18.7h-3.6v-2.5h3.6v-7.1h3v7.1h4.8v2.5h-4.8v17.5
			c0,2.5,0.1,3.6,2.6,3.6c0.8,0,1.6-0.1,2.4-0.3V235.8z"/>
		<path d="M742.4,204.6v-4.4h3.2v4.4H742.4z M742.6,235.7v-25.5h3v25.5H742.6z"/>
		<path d="M751.4,222.9c0-7.4,3.9-13.4,11.8-13.4c8,0,11.8,6,11.8,13.4c0,8.1-4.7,13.5-11.8,13.5
			C756.7,236.3,751.4,231.8,751.4,222.9z M763.2,212.1c-6.2,0-8.7,5.3-8.7,10.8c0,6.4,3,10.8,8.7,10.8c6.2,0,8.7-5.3,8.7-10.8
			C771.8,216.9,769.5,212.1,763.2,212.1z"/>
		<path d="M783.4,235.7h-3v-25.5h3v3.5c2.4-2.5,4.7-4.2,8.2-4.2c3.1,0,6,1,7.8,3.6c1.2,1.8,1.3,3.7,1.3,5.9v16.7h-3V219
			c0-4.6-1.9-6.9-6.6-6.9c-3.6,0-6.2,2.4-7.1,5c-0.6,1.6-0.6,3.1-0.6,4.8V235.7z"/>
		<path d="M821.8,235.7v-35.5h13c9.2,0,11.6,4.6,11.6,9.9c0,7.9-7,9.9-13.6,9.9h-7.6v15.7H821.8z M832.9,217.2
			c6.3,0,10.1-1.3,10.1-7.3c0-4.4-2.9-6.8-9.2-6.8h-8.7v14.1H832.9z"/>
		<path d="M852.1,235.7v-35.5h3v35.5H852.1z"/>
		<path d="M874.3,220.8c1.1-0.1,2.9-0.4,3.9-0.8c1-0.4,1.1-1.8,1.1-2.7c0-3-1.8-5.2-6.4-5.2c-4.1,0-6.9,1.3-7.4,5.8h-3
			c0.4-6,4.9-8.4,10.5-8.4c5.2,0,9.3,2,9.3,7.9v13.9c0,2.3,0.6,2.9,3.1,2v2.3c-0.4,0.1-1.5,0.5-2.3,0.5c-0.5,0-0.9-0.1-1.3-0.1
			c-2-0.3-2.3-2-2.4-3.8c-2.5,2.8-5.8,4.2-9.5,4.2c-4.5,0-8.5-2.4-8.5-7.3c0-4.3,3-6.9,8.9-7.7L874.3,220.8z M879.3,222.3
			c-2.5,1-5.1,1.2-7.6,1.4c-4.5,0.3-7.2,2-7.2,5.4c0,3.1,2.7,4.6,5.5,4.6c4.7,0,9.3-2.3,9.3-7.4V222.3z"/>
		<path d="M898.9,235.8c-0.7,0.1-2,0.6-3.4,0.6c-2.9,0-4.5-1.3-4.5-5.1v-18.7h-3.6v-2.5h3.6v-7.1h3v7.1h4.8v2.5h-4.8v17.5
			c0,2.5,0.1,3.6,2.6,3.6c0.8,0,1.6-0.1,2.4-0.3V235.8z"/>
		<path d="M901.1,212.6v-2.5h3.8v-4c0-4,1.5-6.6,5.4-6.6c0.9,0,1.7,0.1,2.5,0.2v2.7c-0.6-0.1-1.2-0.2-1.8-0.2
			c-3.1,0-3.2,2.5-3.2,4.8v3.2h4.9v2.5h-4.9v23.1h-3v-23.1H901.1z"/>
		<path d="M915.7,222.9c0-7.4,3.9-13.4,11.8-13.4c8,0,11.8,6,11.8,13.4c0,8.1-4.7,13.5-11.8,13.5C921,236.3,915.7,231.8,915.7,222.9
			z M927.5,212.1c-6.2,0-8.7,5.3-8.7,10.8c0,6.4,3,10.8,8.7,10.8c6.2,0,8.7-5.3,8.7-10.8C936.1,216.9,933.7,212.1,927.5,212.1z"/>
		<path d="M947.8,235.7h-3v-25.5h3v4.8h0.1c1.6-4.1,4-5.5,8.3-5.5v3.2c-6.7-0.1-8.4,4.8-8.4,10.5V235.7z"/>
		<path d="M964.6,235.7h-3v-25.5h3v3.8h0.1c1.5-2.9,4.6-4.5,7.9-4.5c4.7,0,6.4,2.2,7.5,4.9c1.7-3.3,4.7-4.9,8.3-4.9
			c6.9,0,7.9,5,7.9,10.1v16.1h-3V218c0-3.6-1.3-5.9-5.5-5.9c-2.2,0-4.3,0.9-5.8,2.9c-1.3,1.7-1.7,4.8-1.7,6.9v13.7h-3V218
			c0-3.6-1.3-5.9-5.5-5.9c-2.2,0-4.3,0.9-5.8,2.9c-1.3,1.7-1.7,4.8-1.7,6.9V235.7z"/>
	</g>
	<g class="st4">
		<path d="M451.3,278.3v-2.5h3.8v-4c0-4,1.5-6.6,5.4-6.6c0.9,0,1.7,0.1,2.5,0.2v2.7c-0.6-0.1-1.2-0.2-1.8-0.2
			c-3.1,0-3.2,2.5-3.2,4.8v3.2h4.9v2.5H458v23.1h-3v-23.1H451.3z"/>
		<path d="M465.9,288.6c0-7.4,3.9-13.4,11.8-13.4c8,0,11.8,6,11.8,13.4c0,8.1-4.7,13.5-11.8,13.5C471.2,302,465.9,297.5,465.9,288.6
			z M477.7,277.8c-6.2,0-8.7,5.3-8.7,10.8c0,6.4,3,10.8,8.7,10.8c6.2,0,8.7-5.3,8.7-10.8C486.3,282.6,484,277.8,477.7,277.8z"/>
		<path d="M498,301.4h-3v-25.5h3v4.8h0.1c1.6-4.1,4-5.5,8.3-5.5v3.2c-6.7-0.1-8.4,4.8-8.4,10.5V301.4z"/>
		<path d="M534,301.5c-0.7,0.1-2,0.6-3.4,0.6c-2.9,0-4.5-1.3-4.5-5.1v-18.7h-3.6v-2.5h3.6v-7.1h3v7.1h4.8v2.5H529v17.5
			c0,2.5,0.1,3.6,2.6,3.6c0.8,0,1.6-0.1,2.4-0.3V301.5z"/>
		<path d="M538.7,301.4v-35.5h3v13.5c2.4-2.5,4.7-4.2,8.2-4.2c3.1,0,6,1,7.8,3.6c1.2,1.8,1.3,3.7,1.3,5.9v16.7h-3v-16.6
			c0-4.6-1.9-6.9-6.6-6.9c-3.6,0-6.2,2.4-7.1,5c-0.6,1.6-0.6,3.1-0.6,4.8v13.7H538.7z"/>
		<path d="M567.9,289.3c0,5.5,2.9,10.1,8.6,10.1c3.8,0,6.8-2.1,7.7-5.9h3.3c-1.5,4.8-4.5,8.5-11,8.5c-8.2,0-11.7-5.8-11.7-13.4
			c0-7.4,4.4-13.5,11.7-13.5c7,0,11.3,5,11.2,14.1H567.9z M584.6,286.8c0-5-2.8-9-8.1-9c-5.2,0-8,4.2-8.6,9H584.6z"/>
		<path d="M607.6,301.4v-35.5h23.6v2.9H611v12.8h18.3v2.9H611v14.1h20.7v2.9H607.6z"/>
		<path d="M640.2,301.4h-3v-25.5h3v3.5c2.4-2.5,4.7-4.2,8.2-4.2c3.1,0,6,1,7.8,3.6c1.2,1.8,1.3,3.7,1.3,5.9v16.7h-3v-16.6
			c0-4.6-1.9-6.9-6.6-6.9c-3.6,0-6.2,2.4-7.1,5c-0.6,1.6-0.6,3.1-0.6,4.8V301.4z"/>
		<path d="M666.5,289.3c0,5.5,2.9,10.1,8.6,10.1c3.8,0,6.8-2.1,7.7-5.9h3.3c-1.5,4.8-4.5,8.5-11,8.5c-8.2,0-11.7-5.8-11.7-13.4
			c0-7.4,4.4-13.5,11.7-13.5c7,0,11.3,5,11.2,14.1H666.5z M683.1,286.8c0-5-2.8-9-8.1-9c-5.2,0-8,4.2-8.6,9H683.1z"/>
		<path d="M695.2,301.4h-3v-25.5h3v4.8h0.1c1.6-4.1,4-5.5,8.3-5.5v3.2c-6.6-0.1-8.4,4.8-8.4,10.5V301.4z"/>
		<path d="M728.2,275.9h3v23.1c0,6.8-2.3,12.9-12,12.9c-7.5,0-10.6-4.3-10.8-7.3h3.2c0.9,3.8,4.1,4.7,7.6,4.7c8.1,0,9.2-6,9-11.9
			c-1.9,3.1-5.5,4.8-9.1,4.8c-7.8,0-11.4-6.4-11.4-13.5c0-7.5,3.3-13.4,11.5-13.4c3.3,0,7.1,1.8,8.9,5.2h0.1V275.9z M719.5,277.8
			c-5,0-8.7,3.6-8.7,10c-0.2,6.4,2.6,11.6,8.7,11.6c5.4,0,8.6-4.9,8.6-10.7C728.2,282.6,725.1,277.8,719.5,277.8z"/>
		<path d="M738.4,308.3c0.8,0.1,1.6,0.3,2.5,0.3c3.4,0,3.8-4.8,5-7l-9.9-25.7h3.3l8.2,21.9l8.2-21.9h3.2l-9.5,25.2
			c-2.4,6.4-4,10.4-8.1,10.4c-1,0-2-0.1-2.8-0.3V308.3z"/>
		<path d="M774.1,265.9h25.8v2.9h-11.2v32.6h-3.4v-32.6h-11.2V265.9z"/>
		<path d="M802.8,301.4h-3v-25.5h3v4.8h0.1c1.6-4.1,4-5.5,8.3-5.5v3.2c-6.7-0.1-8.4,4.8-8.4,10.5V301.4z"/>
		<path d="M827.8,286.5c1.1-0.1,2.9-0.4,3.9-0.8c1-0.4,1.1-1.8,1.1-2.7c0-3-1.8-5.2-6.4-5.2c-4.1,0-6.9,1.3-7.4,5.8h-3
			c0.4-6,4.9-8.4,10.5-8.4c5.2,0,9.3,2,9.3,7.9V297c0,2.3,0.6,2.9,3.1,2v2.3c-0.4,0.1-1.5,0.5-2.3,0.5c-0.5,0-0.9-0.1-1.3-0.1
			c-2-0.3-2.3-2-2.4-3.8c-2.5,2.8-5.8,4.2-9.5,4.2c-4.5,0-8.5-2.4-8.5-7.3c0-4.3,3-6.9,8.9-7.7L827.8,286.5z M832.8,288
			c-2.5,1-5.1,1.2-7.6,1.4c-4.5,0.3-7.2,2-7.2,5.4c0,3.1,2.7,4.6,5.5,4.6c4.7,0,9.3-2.3,9.3-7.4V288z"/>
		<path d="M846.5,301.4h-3v-25.5h3v3.5c2.4-2.5,4.7-4.2,8.2-4.2c3.1,0,6,1,7.8,3.6c1.2,1.8,1.3,3.7,1.3,5.9v16.7h-3v-16.6
			c0-4.6-1.9-6.9-6.6-6.9c-3.6,0-6.2,2.4-7.1,5c-0.6,1.6-0.6,3.1-0.6,4.8V301.4z"/>
		<path d="M872.6,293.4c0.9,4.4,3.2,6,7.6,6c4.3,0,6.3-2.3,6.3-4.7c0-7.4-16.4-2.2-16.4-12.2c0-4.2,3.3-7.3,9-7.3
			c5.5,0,9.1,2.3,9.9,8h-3c-0.5-3.9-3.2-5.4-6.9-5.4c-3.7,0-5.8,1.8-5.8,4.4c0,6.9,16.4,2.6,16.4,12.4c0,4.9-4.4,7.4-10.4,7.4
			s-9.5-3.8-9.7-8.7H872.6z"/>
		<path d="M895.8,270.3v-4.4h3.2v4.4H895.8z M896,301.4v-25.5h3v25.5H896z"/>
		<path d="M915.4,301.5c-0.7,0.1-2,0.6-3.4,0.6c-2.9,0-4.5-1.3-4.5-5.1v-18.7h-3.6v-2.5h3.6v-7.1h3v7.1h4.8v2.5h-4.8v17.5
			c0,2.5,0.1,3.6,2.6,3.6c0.8,0,1.6-0.1,2.4-0.3V301.5z"/>
		<path d="M920.4,270.3v-4.4h3.3v4.4H920.4z M920.6,301.4v-25.5h3v25.5H920.6z"/>
		<path d="M929.4,288.6c0-7.4,3.9-13.4,11.8-13.4c8,0,11.8,6,11.8,13.4c0,8.1-4.7,13.5-11.8,13.5C934.7,302,929.4,297.5,929.4,288.6
			z M941.2,277.8c-6.2,0-8.7,5.3-8.7,10.8c0,6.4,3,10.8,8.7,10.8c6.2,0,8.7-5.3,8.7-10.8C949.8,282.6,947.5,277.8,941.2,277.8z"/>
		<path d="M961.4,301.4h-3v-25.5h3v3.5c2.4-2.5,4.7-4.2,8.2-4.2c3.1,0,6,1,7.8,3.6c1.2,1.8,1.3,3.7,1.3,5.9v16.7h-3v-16.6
			c0-4.6-1.9-6.9-6.6-6.9c-3.6,0-6.2,2.4-7.1,5c-0.6,1.6-0.6,3.1-0.6,4.8V301.4z"/>
	</g>
</g>
</svg>
